<svg xmlns="http://www.w3.org/2000/svg" width="15" height="20"><svg xmlns="http://www.w3.org/2000/svg" width="15" height="20" fill="none" viewBox="0 0 15 20"><g clip-path="url(#clip0_3_14)"><path fill="#D7827E" d="M9.757 2.998c-1.396 0-2.538.507-3.427 1.522-.888 1.016-1.333 2.253-1.333 3.712v4.996c0 .476-.237.714-.713.714s-.714-.238-.714-.714V8.232c0-1.412.357-2.68 1.07-3.807.714-1.126 1.627-1.919 2.737-2.379-2.38-.412-4.6-.618-6.663-.618C.238 1.428 0 1.19 0 .714S.238 0 .714 0c2.459 0 5.473.365 9.043 1.094.19.032.357.143.5.334.143.174.214.38.214.618s-.08.46-.238.666c-.159.19-.317.286-.476.286Z"/><path fill="#D7827E" d="M6.811 19.415c-.425-.052-.632-.317-.621-.796.021-.828-.044-2.77-.196-5.824-.139-3.038-.168-4.88-.089-5.525.147-1.196.825-2.096 2.034-2.698 1.209-.603 2.506-.82 3.892-.65 1.039.128 1.853.532 2.44 1.211.588.68.82 1.523.697 2.53a2.878 2.878 0 0 1-.723 1.59 3.771 3.771 0 0 1-1.35 1.033c-1.085.506-1.966.717-2.643.634-.472-.058-.68-.323-.622-.795.053-.425.317-.625.793-.598.494.013 1.116-.167 1.864-.538.765-.37 1.185-.862 1.26-1.476.078-.63-.053-1.125-.392-1.486-.338-.377-.916-.616-1.734-.716-.804-.099-1.667.035-2.591.4-.909.369-1.407.915-1.496 1.639-.09.724-.039 3.048.15 6.97l.452-1.527c.137-.462.402-.67.796-.621.472.058.68.323.621.795-.01.079-.028.165-.055.257l-1.62 5.578c-.034.14-.123.28-.268.423-.147.157-.347.22-.599.19Z"/></g><defs><clipPath id="SvgjsClipPath1000"><path fill="#fff" d="M0 0h15v19.495H0z"/></clipPath></defs></svg><style>@media (prefers-color-scheme:light){:root{filter:none}}</style></svg>